<?xml version="1.0" encoding="UTF-8"?>
<svg fill="#60bd10" xmlns="http://www.w3.org/2000/svg" viewBox="0 0 24 24" width="24px" height="24px">
<g fill="#00A046">
<path d="M11 22C11 23.1046 10.1046 24 9 24C7.89543 24 7 23.1046 7 22C7 20.8954 7.89543 20 9 20C10.1046 20 11 20.8954 11 22Z"></path>
 <path d="M21 22C21 23.1046 20.1046 24 19 24C17.8954 24 17 23.1046 17 22C17 20.8954 17.8954 20 19 20C20.1046 20 21 20.8954 21 22Z"></path>
 </g>
 <g id="icon-basket-filled__fill">
        <path d="M20 15L21 6H6L10 16L20 15Z" fill="#00A046"></path>
        <circle cx="17" cy="7" r="7" fill="white"></circle>
        <path fill-rule="evenodd" clip-rule="evenodd" d="M17 13C20.3137 13 23 10.3137 23 7C23 3.68629 20.3137 1 17 1C13.6863 1 11 3.68629 11 7C11 10.3137 13.6863 13 17 13ZM20.7071 5.70711C21.0976 5.31658 21.0976 4.68342 20.7071 4.29289C20.3166 3.90237 19.6834 3.90237 19.2929 4.29289L16 7.58579L14.7071 6.29289C14.3166 5.90237 13.6834 5.90237 13.2929 6.29289C12.9024 6.68342 12.9024 7.31658 13.2929 7.70711L15.2929 9.70711C15.6834 10.0976 16.3166 10.0976 16.7071 9.70711L20.7071 5.70711Z" fill="#00A046"></path>
    </g>
    </svg>
