<?xml version="1.0" encoding="UTF-8"?>
<svg xmlns="http://www.w3.org/2000/svg" xmlns:xlink="http://www.w3.org/1999/xlink" width="24px" height="24px" viewBox="0 0 24 24" version="1.1">
<g id="surface1">
<path style=" stroke:none;fill-rule:nonzero;fill:rgb(0%,0%,0%);fill-opacity:1;" d="M 23.949219 7.121094 L 21.15625 15.914062 C 20.949219 16.539062 20.398438 16.957031 19.75 16.957031 L 8.972656 16.957031 C 8.347656 16.957031 7.75 16.566406 7.539062 15.992188 L 3.417969 4.957031 L 1.042969 4.957031 C 0.46875 4.957031 0 4.484375 0 3.914062 C 0 3.339844 0.46875 2.867188 1.042969 2.867188 L 4.148438 2.867188 C 4.589844 2.867188 4.984375 3.15625 5.140625 3.574219 L 9.390625 14.867188 L 19.304688 14.867188 L 21.523438 7.824219 L 9.234375 7.824219 C 8.660156 7.824219 8.191406 7.355469 8.191406 6.78125 C 8.191406 6.207031 8.660156 5.738281 9.234375 5.738281 L 22.957031 5.738281 C 23.292969 5.738281 23.609375 5.921875 23.792969 6.183594 C 24 6.441406 24.050781 6.808594 23.949219 7.121094 Z M 9.496094 18.339844 C 9.050781 18.339844 8.609375 18.523438 8.292969 18.835938 C 7.984375 19.148438 7.800781 19.589844 7.800781 20.035156 C 7.800781 20.476562 7.984375 20.921875 8.292969 21.234375 C 8.609375 21.546875 9.050781 21.730469 9.496094 21.730469 C 9.941406 21.730469 10.382812 21.546875 10.695312 21.234375 C 11.007812 20.921875 11.191406 20.476562 11.191406 20.035156 C 11.191406 19.589844 11.007812 19.148438 10.695312 18.835938 C 10.382812 18.523438 9.941406 18.339844 9.496094 18.339844 Z M 18.859375 18.339844 C 18.417969 18.339844 17.972656 18.523438 17.660156 18.835938 C 17.347656 19.148438 17.164062 19.589844 17.164062 20.035156 C 17.164062 20.476562 17.347656 20.921875 17.660156 21.234375 C 17.972656 21.546875 18.417969 21.730469 18.859375 21.730469 C 19.304688 21.730469 19.75 21.546875 20.058594 21.234375 C 20.375 20.921875 20.558594 20.476562 20.558594 20.035156 C 20.558594 19.589844 20.375 19.148438 20.058594 18.835938 C 19.75 18.523438 19.304688 18.339844 18.859375 18.339844 Z M 18.859375 18.339844 "/>
</g>
</svg>
