<?xml version="1.0" encoding="UTF-8"?>
<svg xmlns="http://www.w3.org/2000/svg" xmlns:xlink="http://www.w3.org/1999/xlink" width="40px" height="40px" viewBox="0 0 40 40" version="1.1">
<g id="surface1">
<path style=" stroke:none;fill-rule:nonzero;fill:rgb(0%,0%,0%);fill-opacity:1;" d="M 39.914062 11.871094 L 35.261719 26.523438 C 34.914062 27.566406 34 28.261719 32.914062 28.261719 L 14.957031 28.261719 C 13.914062 28.261719 12.914062 27.609375 12.566406 26.652344 L 5.695312 8.261719 L 1.738281 8.261719 C 0.78125 8.261719 0 7.476562 0 6.523438 C 0 5.566406 0.78125 4.78125 1.738281 4.78125 L 6.914062 4.78125 C 7.652344 4.78125 8.304688 5.261719 8.566406 5.957031 L 15.652344 24.78125 L 32.175781 24.78125 L 35.871094 13.042969 L 15.390625 13.042969 C 14.433594 13.042969 13.652344 12.261719 13.652344 11.304688 C 13.652344 10.347656 14.433594 9.566406 15.390625 9.566406 L 38.261719 9.566406 C 38.824219 9.566406 39.347656 9.871094 39.652344 10.304688 C 40 10.738281 40.085938 11.347656 39.914062 11.871094 Z M 15.824219 30.566406 C 15.085938 30.566406 14.347656 30.871094 13.824219 31.390625 C 13.304688 31.914062 13 32.652344 13 33.390625 C 13 34.128906 13.304688 34.871094 13.824219 35.390625 C 14.347656 35.914062 15.085938 36.21875 15.824219 36.21875 C 16.566406 36.21875 17.304688 35.914062 17.824219 35.390625 C 18.347656 34.871094 18.652344 34.128906 18.652344 33.390625 C 18.652344 32.652344 18.347656 31.914062 17.824219 31.390625 C 17.304688 30.871094 16.566406 30.566406 15.824219 30.566406 Z M 31.433594 30.566406 C 30.695312 30.566406 29.957031 30.871094 29.433594 31.390625 C 28.914062 31.914062 28.609375 32.652344 28.609375 33.390625 C 28.609375 34.128906 28.914062 34.871094 29.433594 35.390625 C 29.957031 35.914062 30.695312 36.21875 31.433594 36.21875 C 32.175781 36.21875 32.914062 35.914062 33.433594 35.390625 C 33.957031 34.871094 34.261719 34.128906 34.261719 33.390625 C 34.261719 32.652344 33.957031 31.914062 33.433594 31.390625 C 32.914062 30.871094 32.175781 30.566406 31.433594 30.566406 Z M 31.433594 30.566406 "/>
</g>
</svg>
