<?xml version="1.0" encoding="UTF-8"?>
<svg xmlns="http://www.w3.org/2000/svg" xmlns:xlink="http://www.w3.org/1999/xlink" width="125px" height="125px" viewBox="0 0 125 125" version="1.1">
<g id="surface1">
<path style=" stroke:none;fill-rule:nonzero;fill:#9dd558;fill-opacity:1;" d="M 4.625 15.023438 L 17.878906 15.023438 L 36.761719 83.308594 C 37.300781 85.3125 39.152344 86.699219 41.234375 86.699219 L 99.269531 86.699219 C 101.117188 86.699219 102.738281 85.621094 103.507812 83.925781 L 124.625 35.371094 C 125.242188 33.90625 125.085938 32.289062 124.238281 30.976562 C 123.390625 29.667969 121.925781 28.898438 120.386719 28.898438 L 56.261719 28.898438 C 53.71875 28.898438 51.636719 30.976562 51.636719 33.519531 C 51.636719 36.0625 53.71875 38.144531 56.261719 38.144531 L 113.296875 38.144531 L 96.183594 77.453125 L 44.703125 77.453125 L 25.820312 9.167969 C 25.28125 7.164062 23.429688 5.773438 21.347656 5.773438 L 4.625 5.773438 C 2.082031 5.773438 0 7.855469 0 10.398438 C 0 12.941406 2.082031 15.023438 4.625 15.023438 Z M 4.625 15.023438 "/>
<path style=" stroke:none;fill-rule:nonzero;fill:#9dd558;fill-opacity:1;" d="M 36.839844 119.226562 C 42.621094 119.226562 47.320312 114.523438 47.320312 108.742188 C 47.320312 102.960938 42.621094 98.261719 36.839844 98.261719 C 31.058594 98.261719 26.359375 102.960938 26.359375 108.742188 C 26.359375 114.523438 31.058594 119.226562 36.839844 119.226562 Z M 36.839844 119.226562 "/>
<path style=" stroke:none;fill-rule:nonzero;fill:#9dd558;fill-opacity:1;" d="M 102.351562 119.226562 C 102.582031 119.226562 102.890625 119.226562 103.121094 119.226562 C 105.894531 118.992188 108.441406 117.761719 110.289062 115.601562 C 112.140625 113.519531 112.988281 110.824219 112.832031 107.972656 C 112.449219 102.269531 107.4375 97.875 101.65625 98.261719 C 95.878906 98.648438 91.5625 103.734375 91.945312 109.4375 C 92.332031 114.910156 96.878906 119.226562 102.351562 119.226562 Z M 102.351562 119.226562 "/>
</g>
</svg>
