<?xml version="1.0" encoding="UTF-8"?>
<svg xmlns="http://www.w3.org/2000/svg" xmlns:xlink="http://www.w3.org/1999/xlink" width="30px" height="30px" viewBox="0 0 30 30" version="1.1">
<g id="surface1">
<path style=" stroke:none;fill-rule:nonzero;fill:rgb(0%,0%,0%);fill-opacity:1;" d="M 15 0 C 10.992188 0 7.226562 1.558594 4.394531 4.394531 C -1.457031 10.242188 -1.457031 19.757812 4.394531 25.605469 C 7.226562 28.441406 10.992188 30 15 30 C 19.007812 30 22.773438 28.441406 25.605469 25.605469 C 31.457031 19.757812 31.457031 10.242188 25.605469 4.394531 C 22.773438 1.558594 19.007812 0 15 0 Z M 21.75 21.75 C 21.484375 22.015625 21.132812 22.148438 20.785156 22.148438 C 20.4375 22.148438 20.085938 22.015625 19.820312 21.75 L 15 16.929688 L 10.179688 21.75 C 9.914062 22.015625 9.5625 22.148438 9.214844 22.148438 C 8.867188 22.148438 8.515625 22.015625 8.25 21.75 C 7.71875 21.21875 7.71875 20.355469 8.25 19.820312 L 13.070312 15 L 8.25 10.179688 C 7.71875 9.644531 7.71875 8.78125 8.25 8.25 C 8.78125 7.71875 9.644531 7.71875 10.179688 8.25 L 15 13.070312 L 19.820312 8.25 C 20.351562 7.71875 21.21875 7.71875 21.75 8.25 C 22.28125 8.78125 22.28125 9.644531 21.75 10.179688 L 16.929688 15 L 21.75 19.820312 C 22.28125 20.355469 22.28125 21.21875 21.75 21.75 Z M 21.75 21.75 "/>
</g>
</svg>
