<?xml version="1.0" encoding="UTF-8"?>
<svg xmlns="http://www.w3.org/2000/svg" xmlns:xlink="http://www.w3.org/1999/xlink" width="24px" height="24px" viewBox="0 0 24 24" version="1.1">
<g id="surface1">
<path style=" stroke:none;fill-rule:nonzero;fill:rgb(0%,0%,0%);fill-opacity:1;" d="M 22.816406 23.839844 L 21.21875 23.839844 C 21.21875 18.75 17.078125 14.609375 11.988281 14.609375 C 6.894531 14.609375 2.753906 18.75 2.753906 23.839844 L 1.15625 23.839844 C 1.15625 17.867188 6.015625 13.011719 11.988281 13.011719 C 17.957031 13.011719 22.816406 17.867188 22.816406 23.839844 Z M 22.816406 23.839844 "/>
<path style=" stroke:none;fill-rule:nonzero;fill:rgb(0%,0%,0%);fill-opacity:1;" d="M 11.988281 12.378906 C 8.609375 12.378906 5.863281 9.632812 5.863281 6.253906 C 5.863281 2.878906 8.609375 0.132812 11.988281 0.132812 C 15.363281 0.132812 18.109375 2.878906 18.109375 6.253906 C 18.109375 9.632812 15.363281 12.378906 11.988281 12.378906 Z M 11.988281 1.730469 C 9.492188 1.730469 7.460938 3.761719 7.460938 6.253906 C 7.460938 8.75 9.492188 10.78125 11.988281 10.78125 C 14.480469 10.78125 16.511719 8.75 16.511719 6.253906 C 16.511719 3.761719 14.480469 1.730469 11.988281 1.730469 Z M 11.988281 1.730469 "/>
</g>
</svg>
